<svg xmlns="http://www.w3.org/2000/svg" xmlns:xlink="http://www.w3.org/1999/xlink" width="500" zoomAndPan="magnify" viewBox="0 0 375 374.999991" height="500" preserveAspectRatio="xMidYMid meet" version="1.2"><defs/><g id="b1763e2b90"><g style="fill:#000000;fill-opacity:1;"><g transform="translate(13.619968, 204.351936)"><path style="stroke:none" d="M 72.65625 -70.03125 C 78.007812 -75.59375 84.4375 -79.289062 91.9375 -81.125 C 99.445312 -82.957031 107.140625 -82.851562 115.015625 -80.8125 C 122.898438 -78.78125 130.03125 -74.703125 136.40625 -68.578125 C 140.144531 -64.972656 142.921875 -61.175781 144.734375 -57.1875 C 146.546875 -53.207031 147.890625 -49.289062 148.765625 -45.4375 C 149.640625 -41.582031 150.523438 -38.097656 151.421875 -34.984375 C 152.328125 -31.878906 153.6875 -29.453125 155.5 -27.703125 C 159.34375 -24.003906 162.769531 -22.609375 165.78125 -23.515625 C 168.789062 -24.421875 171.90625 -26.539062 175.125 -29.875 L 178.609375 -26.515625 C 175.128906 -21.867188 171.066406 -17.539062 166.421875 -13.53125 C 161.785156 -9.519531 156.757812 -6.519531 151.34375 -4.53125 C 145.925781 -2.550781 140.328125 -2.097656 134.546875 -3.171875 C 128.765625 -4.242188 123.039062 -7.507812 117.375 -12.96875 C 113.632812 -16.5625 111.125 -20.582031 109.84375 -25.03125 C 108.570312 -29.476562 107.960938 -34.054688 108.015625 -38.765625 C 108.078125 -43.484375 108.410156 -48.03125 109.015625 -52.40625 C 109.628906 -56.789062 109.953125 -60.769531 109.984375 -64.34375 C 110.015625 -67.914062 109.289062 -70.804688 107.8125 -73.015625 C 106.332031 -75.222656 103.609375 -76.488281 99.640625 -76.8125 C 95.253906 -77.125 92.460938 -74.984375 91.265625 -70.390625 C 90.066406 -65.804688 90.660156 -59.394531 93.046875 -51.15625 C 95.441406 -42.914062 99.710938 -33.488281 105.859375 -22.875 C 108.222656 -18.851562 110.800781 -13.890625 113.59375 -7.984375 C 116.382812 -2.078125 118.613281 4.253906 120.28125 11.015625 C 121.957031 17.785156 122.363281 24.453125 121.5 31.015625 C 120.632812 37.585938 117.671875 43.5 112.609375 48.75 C 107.160156 54.414062 100.582031 58.210938 92.875 60.140625 C 85.164062 62.078125 77.296875 62.054688 69.265625 60.078125 C 61.242188 58.109375 53.945312 53.957031 47.375 47.625 C 43.632812 44.03125 40.78125 40.113281 38.8125 35.875 C 36.84375 31.644531 35.269531 27.507812 34.09375 23.46875 C 32.925781 19.425781 31.816406 15.722656 30.765625 12.359375 C 29.710938 9.003906 28.226562 6.398438 26.3125 4.546875 C 22.5625 0.941406 19.15625 -0.429688 16.09375 0.421875 C 13.03125 1.273438 9.894531 3.367188 6.6875 6.703125 L 3.34375 3.5 C 6.726562 -1.21875 10.757812 -5.554688 15.4375 -9.515625 C 20.125 -13.484375 25.179688 -16.460938 30.609375 -18.453125 C 36.035156 -20.441406 41.640625 -20.894531 47.421875 -19.8125 C 53.203125 -18.726562 58.875 -15.515625 64.4375 -10.171875 C 68.175781 -6.566406 70.753906 -2.46875 72.171875 2.125 C 73.597656 6.71875 74.332031 11.46875 74.375 16.375 C 74.425781 21.28125 74.273438 26.046875 73.921875 30.671875 C 73.566406 35.296875 73.445312 39.46875 73.5625 43.1875 C 73.6875 46.90625 74.515625 49.890625 76.046875 52.140625 C 77.578125 54.398438 80.285156 55.640625 84.171875 55.859375 C 88.628906 56.066406 91.28125 53.554688 92.125 48.328125 C 92.96875 43.109375 92.085938 36.128906 89.484375 27.390625 C 86.890625 18.648438 82.507812 8.882812 76.34375 -1.90625 C 71.414062 -10.550781 67.484375 -18.8125 64.546875 -26.6875 C 61.617188 -34.570312 60.632812 -42.097656 61.59375 -49.265625 C 62.550781 -56.441406 66.238281 -63.363281 72.65625 -70.03125 Z M 72.65625 -70.03125 "/></g></g><g style="fill:#000000;fill-opacity:1;"><g transform="translate(179.4963, 177.93005)"><path style="stroke:none" d="M 72.65625 -70.03125 C 78.007812 -75.59375 84.4375 -79.289062 91.9375 -81.125 C 99.445312 -82.957031 107.140625 -82.851562 115.015625 -80.8125 C 122.898438 -78.78125 130.03125 -74.703125 136.40625 -68.578125 C 140.144531 -64.972656 142.921875 -61.175781 144.734375 -57.1875 C 146.546875 -53.207031 147.890625 -49.289062 148.765625 -45.4375 C 149.640625 -41.582031 150.523438 -38.097656 151.421875 -34.984375 C 152.328125 -31.878906 153.6875 -29.453125 155.5 -27.703125 C 159.34375 -24.003906 162.769531 -22.609375 165.78125 -23.515625 C 168.789062 -24.421875 171.90625 -26.539062 175.125 -29.875 L 178.609375 -26.515625 C 175.128906 -21.867188 171.066406 -17.539062 166.421875 -13.53125 C 161.785156 -9.519531 156.757812 -6.519531 151.34375 -4.53125 C 145.925781 -2.550781 140.328125 -2.097656 134.546875 -3.171875 C 128.765625 -4.242188 123.039062 -7.507812 117.375 -12.96875 C 113.632812 -16.5625 111.125 -20.582031 109.84375 -25.03125 C 108.570312 -29.476562 107.960938 -34.054688 108.015625 -38.765625 C 108.078125 -43.484375 108.410156 -48.03125 109.015625 -52.40625 C 109.628906 -56.789062 109.953125 -60.769531 109.984375 -64.34375 C 110.015625 -67.914062 109.289062 -70.804688 107.8125 -73.015625 C 106.332031 -75.222656 103.609375 -76.488281 99.640625 -76.8125 C 95.253906 -77.125 92.460938 -74.984375 91.265625 -70.390625 C 90.066406 -65.804688 90.660156 -59.394531 93.046875 -51.15625 C 95.441406 -42.914062 99.710938 -33.488281 105.859375 -22.875 C 108.222656 -18.851562 110.800781 -13.890625 113.59375 -7.984375 C 116.382812 -2.078125 118.613281 4.253906 120.28125 11.015625 C 121.957031 17.785156 122.363281 24.453125 121.5 31.015625 C 120.632812 37.585938 117.671875 43.5 112.609375 48.75 C 107.160156 54.414062 100.582031 58.210938 92.875 60.140625 C 85.164062 62.078125 77.296875 62.054688 69.265625 60.078125 C 61.242188 58.109375 53.945312 53.957031 47.375 47.625 C 43.632812 44.03125 40.78125 40.113281 38.8125 35.875 C 36.84375 31.644531 35.269531 27.507812 34.09375 23.46875 C 32.925781 19.425781 31.816406 15.722656 30.765625 12.359375 C 29.710938 9.003906 28.226562 6.398438 26.3125 4.546875 C 22.5625 0.941406 19.15625 -0.429688 16.09375 0.421875 C 13.03125 1.273438 9.894531 3.367188 6.6875 6.703125 L 3.34375 3.5 C 6.726562 -1.21875 10.757812 -5.554688 15.4375 -9.515625 C 20.125 -13.484375 25.179688 -16.460938 30.609375 -18.453125 C 36.035156 -20.441406 41.640625 -20.894531 47.421875 -19.8125 C 53.203125 -18.726562 58.875 -15.515625 64.4375 -10.171875 C 68.175781 -6.566406 70.753906 -2.46875 72.171875 2.125 C 73.597656 6.71875 74.332031 11.46875 74.375 16.375 C 74.425781 21.28125 74.273438 26.046875 73.921875 30.671875 C 73.566406 35.296875 73.445312 39.46875 73.5625 43.1875 C 73.6875 46.90625 74.515625 49.890625 76.046875 52.140625 C 77.578125 54.398438 80.285156 55.640625 84.171875 55.859375 C 88.628906 56.066406 91.28125 53.554688 92.125 48.328125 C 92.96875 43.109375 92.085938 36.128906 89.484375 27.390625 C 86.890625 18.648438 82.507812 8.882812 76.34375 -1.90625 C 71.414062 -10.550781 67.484375 -18.8125 64.546875 -26.6875 C 61.617188 -34.570312 60.632812 -42.097656 61.59375 -49.265625 C 62.550781 -56.441406 66.238281 -63.363281 72.65625 -70.03125 Z M 72.65625 -70.03125 "/></g></g></g></svg>